<?xml version="1.0" encoding="utf-8"?>
<!-- Generator: Adobe Illustrator 23.0.1, SVG Export Plug-In . SVG Version: 6.00 Build 0)  -->
<svg version="1.1" id="Capa_1" xmlns="http://www.w3.org/2000/svg" xmlns:xlink="http://www.w3.org/1999/xlink" x="0px" y="0px"
	 width="280px" height="160px" viewBox="0 0 280 160" style="enable-background:new 0 0 280 160;" xml:space="preserve">
<style type="text/css">
	.st0{fill:#00539D;}
	.st1{fill-rule:evenodd;clip-rule:evenodd;fill:#E11F28;}
	.st2{fill:#E11F28;}
</style>
<g>
	<path class="st0" d="M31.5,125.6c-1.9,0-3.7-0.3-5.3-0.9c-1.6-0.6-3-1.5-4.2-2.6s-2.1-2.5-2.8-4c-0.7-1.5-1-3.2-1-5.1
		s0.3-3.5,1-5.1c0.7-1.5,1.6-2.9,2.8-4s2.6-2,4.2-2.6c1.6-0.6,3.4-0.9,5.3-0.9c2.2,0,4.2,0.4,6,1.2c1.8,0.8,3.2,1.9,4.4,3.4
		l-4.4,3.9c-0.8-0.9-1.6-1.6-2.6-2.1c-0.9-0.5-2-0.7-3.1-0.7c-1,0-1.9,0.2-2.7,0.5c-0.8,0.3-1.5,0.8-2.1,1.4c-0.6,0.6-1,1.3-1.4,2.2
		c-0.3,0.9-0.5,1.8-0.5,2.8s0.2,2,0.5,2.8c0.3,0.9,0.8,1.6,1.4,2.2c0.6,0.6,1.3,1.1,2.1,1.4c0.8,0.3,1.7,0.5,2.7,0.5
		c1.1,0,2.2-0.2,3.1-0.7c0.9-0.5,1.8-1.2,2.6-2.1l4.4,3.9c-1.2,1.5-2.6,2.6-4.4,3.4C35.7,125.2,33.7,125.6,31.5,125.6z"/>
	<path class="st0" d="M44.7,125.1v-18.8H51v5.5l-1-1.6c0.6-1.4,1.5-2.5,2.7-3.2c1.2-0.7,2.7-1.1,4.5-1.1v6c-0.3,0-0.6-0.1-0.8-0.1
		s-0.5,0-0.7,0c-1.3,0-2.4,0.4-3.3,1.1c-0.8,0.7-1.2,1.9-1.2,3.5v8.6H44.7z"/>
	<path class="st0" d="M69.6,125.4c-2.2,0-4.2-0.4-5.8-1.3c-1.6-0.8-2.9-2-3.8-3.5c-0.9-1.5-1.4-3.1-1.4-5c0-1.9,0.4-3.6,1.3-5
		c0.9-1.5,2.1-2.6,3.7-3.4c1.6-0.8,3.3-1.2,5.3-1.2c1.8,0,3.5,0.4,5,1.2c1.5,0.8,2.7,1.9,3.6,3.3s1.4,3.2,1.4,5.3c0,0.2,0,0.5,0,0.8
		c0,0.3,0,0.6-0.1,0.8H64v-3.5h11.3l-2.5,1c0-0.8-0.1-1.6-0.5-2.2c-0.3-0.6-0.8-1.1-1.4-1.5c-0.6-0.3-1.3-0.5-2-0.5
		c-0.8,0-1.5,0.2-2.1,0.5c-0.6,0.3-1.1,0.8-1.4,1.5c-0.3,0.6-0.5,1.4-0.5,2.2v1c0,0.9,0.2,1.7,0.6,2.4c0.4,0.7,0.9,1.2,1.6,1.5
		c0.7,0.4,1.6,0.5,2.6,0.5c0.9,0,1.7-0.1,2.4-0.4c0.6-0.3,1.3-0.7,1.9-1.2l3.4,3.6c-0.9,1-2,1.7-3.3,2.2
		C72.9,125.2,71.4,125.4,69.6,125.4z"/>
	<path class="st0" d="M80,112v-4.9h13.6v4.9H80z M90.3,125.4c-2.4,0-4.3-0.6-5.6-1.8c-1.3-1.2-2-3-2-5.4v-16.1h6.6v16
		c0,0.7,0.2,1.3,0.5,1.6c0.4,0.4,0.8,0.6,1.4,0.6c0.8,0,1.4-0.2,2-0.6l1.7,4.6c-0.6,0.4-1.3,0.7-2.1,0.8S91.2,125.4,90.3,125.4z"/>
	<path class="st0" d="M103.3,125.4c-1.5,0-2.7-0.3-3.8-0.8c-1-0.5-1.8-1.2-2.4-2.1c-0.5-0.9-0.8-1.8-0.8-2.9c0-1.2,0.3-2.2,0.9-3
		c0.6-0.9,1.5-1.5,2.7-2c1.2-0.4,2.8-0.7,4.7-0.7h4.4v3.5h-3.5c-1.1,0-1.8,0.2-2.2,0.5s-0.6,0.8-0.6,1.4c0,0.6,0.2,1,0.7,1.4
		c0.4,0.4,1,0.5,1.8,0.5c0.7,0,1.4-0.2,2-0.5c0.6-0.4,1-0.9,1.3-1.6l0.9,2.4c-0.3,1.3-1,2.3-2,2.9
		C106.3,125.1,105,125.4,103.3,125.4z M108.9,125.1v-3.5l-0.5-0.9v-6.4c0-1-0.3-1.8-1-2.4c-0.6-0.6-1.6-0.8-3-0.8
		c-0.9,0-1.8,0.2-2.8,0.5c-0.9,0.3-1.7,0.7-2.4,1.1l-2.2-4.4c1.1-0.7,2.3-1.2,3.8-1.6c1.5-0.4,3-0.6,4.4-0.6c3,0,5.4,0.7,7.1,2.1
		s2.5,3.6,2.5,6.6v10.4H108.9z"/>
	<path class="st0" d="M129.6,125.1v-24.2h12.3c3.2,0,5.6,0.6,7.2,1.8c1.6,1.2,2.4,2.7,2.4,4.6c0,1.2-0.3,2.3-1,3.3
		c-0.6,0.9-1.6,1.7-2.8,2.2c-1.2,0.5-2.6,0.8-4.2,0.8l0.7-1.7c1.7,0,3.2,0.3,4.4,0.8c1.3,0.5,2.3,1.3,3,2.3c0.7,1,1.1,2.2,1.1,3.6
		c0,2.1-0.8,3.7-2.5,4.9s-4.2,1.8-7.5,1.8H129.6z M136.3,120.2h5.7c1.2,0,2.1-0.2,2.7-0.6c0.6-0.4,0.9-1,0.9-1.9
		c0-0.8-0.3-1.4-0.9-1.9c-0.6-0.4-1.5-0.6-2.7-0.6h-6.2v-4.7h5.2c1.2,0,2-0.2,2.6-0.6c0.6-0.4,0.9-1,0.9-1.7c0-0.8-0.3-1.4-0.9-1.8
		c-0.6-0.4-1.4-0.6-2.6-0.6h-4.7V120.2z"/>
	<path class="st0" d="M161.7,125.4c-1.5,0-2.7-0.3-3.8-0.8c-1-0.5-1.8-1.2-2.4-2.1c-0.5-0.9-0.8-1.8-0.8-2.9c0-1.2,0.3-2.2,0.9-3
		c0.6-0.9,1.5-1.5,2.7-2c1.2-0.4,2.8-0.7,4.7-0.7h4.4v3.5H164c-1.1,0-1.8,0.2-2.2,0.5s-0.6,0.8-0.6,1.4c0,0.6,0.2,1,0.7,1.4
		c0.4,0.4,1,0.5,1.8,0.5c0.7,0,1.4-0.2,2-0.5c0.6-0.4,1-0.9,1.3-1.6l0.9,2.4c-0.3,1.3-1,2.3-2,2.9
		C164.7,125.1,163.4,125.4,161.7,125.4z M167.3,125.1v-3.5l-0.5-0.9v-6.4c0-1-0.3-1.8-1-2.4c-0.6-0.6-1.6-0.8-3-0.8
		c-0.9,0-1.8,0.2-2.8,0.5c-0.9,0.3-1.7,0.7-2.4,1.1l-2.2-4.4c1.1-0.7,2.3-1.2,3.8-1.6c1.5-0.4,3-0.6,4.4-0.6c3,0,5.4,0.7,7.1,2.1
		s2.5,3.6,2.5,6.6v10.4H167.3z"/>
	<path class="st0" d="M175.6,112v-4.9h13.6v4.9H175.6z M185.9,125.4c-2.4,0-4.3-0.6-5.6-1.8c-1.3-1.2-2-3-2-5.4v-16.1h6.6v16
		c0,0.7,0.2,1.3,0.5,1.6c0.4,0.4,0.8,0.6,1.4,0.6c0.8,0,1.4-0.2,2-0.6l1.7,4.6c-0.6,0.4-1.3,0.7-2.1,0.8S186.8,125.4,185.9,125.4z"
		/>
	<path class="st0" d="M190.7,112v-4.9h13.6v4.9H190.7z M201,125.4c-2.4,0-4.3-0.6-5.6-1.8c-1.3-1.2-2-3-2-5.4v-16.1h6.6v16
		c0,0.7,0.2,1.3,0.5,1.6c0.4,0.4,0.8,0.6,1.4,0.6c0.8,0,1.4-0.2,2-0.6l1.7,4.6c-0.6,0.4-1.3,0.7-2.1,0.8S201.9,125.4,201,125.4z"/>
	<path class="st0" d="M217.4,125.4c-2.2,0-4.2-0.4-5.8-1.3s-2.9-2-3.8-3.5c-0.9-1.5-1.4-3.1-1.4-5c0-1.9,0.4-3.6,1.3-5
		c0.9-1.5,2.1-2.6,3.7-3.4c1.6-0.8,3.3-1.2,5.3-1.2c1.8,0,3.5,0.4,5,1.2c1.5,0.8,2.7,1.9,3.6,3.3s1.4,3.2,1.4,5.3c0,0.2,0,0.5,0,0.8
		c0,0.3,0,0.6-0.1,0.8h-14.8v-3.5h11.3l-2.5,1c0-0.8-0.1-1.6-0.5-2.2c-0.3-0.6-0.8-1.1-1.4-1.5c-0.6-0.3-1.3-0.5-2-0.5
		c-0.8,0-1.5,0.2-2.1,0.5c-0.6,0.3-1.1,0.8-1.4,1.5c-0.3,0.6-0.5,1.4-0.5,2.2v1c0,0.9,0.2,1.7,0.6,2.4c0.4,0.7,0.9,1.2,1.6,1.5
		c0.7,0.4,1.6,0.5,2.6,0.5c0.9,0,1.7-0.1,2.4-0.4c0.6-0.3,1.3-0.7,1.9-1.2l3.4,3.6c-0.9,1-2,1.7-3.3,2.2
		C220.7,125.2,219.2,125.4,217.4,125.4z"/>
	<path class="st0" d="M229.8,125.1v-18.8h6.3v5.5l-1-1.6c0.6-1.4,1.5-2.5,2.7-3.2c1.2-0.7,2.7-1.1,4.5-1.1v6c-0.3,0-0.6-0.1-0.8-0.1
		s-0.5,0-0.7,0c-1.3,0-2.4,0.4-3.3,1.1c-0.8,0.7-1.2,1.9-1.2,3.5v8.6H229.8z"/>
	<path class="st0" d="M251.4,125.9l-8.3-19.6h6.7l6.1,15.2L251.4,125.9z M248.8,132.1c-1,0-2-0.2-3-0.5c-1-0.3-1.8-0.7-2.5-1.2
		l2.3-4.6c0.4,0.3,0.8,0.6,1.4,0.8c0.5,0.2,1,0.3,1.5,0.3c0.7,0,1.3-0.2,1.7-0.5c0.4-0.3,0.8-0.8,1.1-1.6l0.9-2.1l0.5-0.7l6.4-15.8
		h6.2l-8.1,19.6c-0.7,1.6-1.4,2.9-2.2,3.8s-1.8,1.6-2.8,1.9C251.2,132,250.1,132.1,248.8,132.1z"/>
</g>
<g>
	<rect x="116.7" y="7.4" class="st1" width="45.8" height="9.3"/>
</g>
<g>
	<polygon class="st1" points="120.4,35.2 116.7,35.2 116.7,44.5 121.8,44.5 121.8,44.6 162.5,44.6 162.5,44.5 162.5,35.2 	"/>
</g>
<g>
	<path class="st1" d="M116.7,21.3L116.7,21.3l0,2.6c0,0,0,0,0,0v6.7h2.3h43.5v-9.3H116.7z"/>
</g>
<g>
	<rect x="116.7" y="49.8" class="st1" width="45.8" height="9.3"/>
</g>
<g>
	<polygon class="st1" points="120.4,77.7 116.7,77.7 116.7,87 121.8,87 121.8,87 162.5,87 162.5,87 162.5,77.7 	"/>
</g>
<g>
	<path class="st1" d="M116.7,63.7L116.7,63.7l0,2.6c0,0,0,0,0,0V73h2.3h43.5v-9.3H116.7z"/>
</g>
<g>
	<path class="st2" d="M16.7,147.5v-9.7h1v9.7H16.7z"/>
	<path class="st2" d="M22,146.6h5.9v0.9H21v-9.7h6.7v0.9H22V146.6z M21.9,142.1H27v0.9h-5.1V142.1z"/>
	<path class="st2" d="M30.4,147.5v-9.7h3.6c0.8,0,1.5,0.1,2.1,0.4c0.6,0.3,1,0.6,1.4,1.1c0.3,0.5,0.5,1.1,0.5,1.8
		c0,0.7-0.2,1.3-0.5,1.8c-0.3,0.5-0.8,0.9-1.4,1.1c-0.6,0.3-1.3,0.4-2.1,0.4H31l0.5-0.5v3.6H30.4z M31.5,144l-0.5-0.5h3
		c1,0,1.7-0.2,2.2-0.6c0.5-0.4,0.8-1,0.8-1.8c0-0.8-0.3-1.4-0.8-1.8c-0.5-0.4-1.2-0.6-2.2-0.6h-3l0.5-0.5V144z M37.1,147.5l-2.5-3.5
		h1.1l2.5,3.5H37.1z"/>
	<path class="st2" d="M44.9,147.6c-0.7,0-1.4-0.1-2-0.4c-0.6-0.2-1.2-0.6-1.6-1s-0.8-1-1.1-1.6s-0.4-1.3-0.4-2c0-0.7,0.1-1.4,0.4-2
		s0.6-1.1,1.1-1.6s1-0.8,1.6-1c0.6-0.2,1.3-0.4,2-0.4c0.7,0,1.4,0.1,2,0.4s1.2,0.6,1.6,1c0.5,0.4,0.8,1,1.1,1.6
		c0.3,0.6,0.4,1.3,0.4,2c0,0.7-0.1,1.4-0.4,2c-0.3,0.6-0.6,1.1-1.1,1.6c-0.5,0.4-1,0.8-1.6,1C46.3,147.5,45.6,147.6,44.9,147.6z
		 M44.9,146.7c0.6,0,1.1-0.1,1.6-0.3c0.5-0.2,0.9-0.5,1.3-0.8c0.4-0.4,0.7-0.8,0.9-1.3c0.2-0.5,0.3-1,0.3-1.6c0-0.6-0.1-1.1-0.3-1.6
		c-0.2-0.5-0.5-0.9-0.9-1.3c-0.4-0.4-0.8-0.6-1.3-0.8c-0.5-0.2-1-0.3-1.6-0.3c-0.6,0-1.1,0.1-1.6,0.3c-0.5,0.2-0.9,0.5-1.3,0.8
		c-0.4,0.4-0.7,0.8-0.9,1.3c-0.2,0.5-0.3,1-0.3,1.6c0,0.6,0.1,1.1,0.3,1.6c0.2,0.5,0.5,0.9,0.9,1.3c0.4,0.4,0.8,0.6,1.3,0.8
		C43.7,146.6,44.3,146.7,44.9,146.7z"/>
	<path class="st2" d="M52.4,147.5v-9.7h0.8l6.7,8.4h-0.4v-8.4h1v9.7h-0.8L53,139h0.4v8.4H52.4z"/>
	<path class="st2" d="M63.8,147.5v-9.7h1v9.7H63.8z"/>
	<path class="st2" d="M68.2,147.5v-9.7H69l4.4,7.6H73l4.4-7.6h0.8v9.7h-1v-8.2h0.2l-4.1,6.9H73l-4.1-6.9h0.3v8.2H68.2z"/>
	<path class="st2" d="M80,147.5l4.4-9.7h1l4.4,9.7h-1.1l-4.1-9.1h0.4l-4.1,9.1H80z M81.8,144.9l0.3-0.8h5.7l0.3,0.8H81.8z"/>
	<path class="st2" d="M91.7,147.5v-9.7h1v9.7H91.7z M92.6,145.1l0-1.3l5.9-6.1h1.2l-4.3,4.5l-0.6,0.6L92.6,145.1z M98.7,147.5
		l-4.2-4.8l0.7-0.8l4.7,5.6H98.7z"/>
	<path class="st2" d="M101.7,147.5v-9.7h1v9.7H101.7z"/>
	<path class="st2" d="M108.7,147.6c-0.7,0-1.4-0.1-2.1-0.4c-0.7-0.2-1.2-0.5-1.5-0.9l0.4-0.8c0.3,0.3,0.8,0.6,1.4,0.8
		c0.6,0.2,1.2,0.3,1.8,0.3c0.6,0,1.1-0.1,1.5-0.2c0.4-0.2,0.7-0.4,0.8-0.6s0.3-0.5,0.3-0.9c0-0.4-0.1-0.7-0.3-0.9
		c-0.2-0.2-0.5-0.4-0.9-0.5c-0.4-0.1-0.7-0.3-1.2-0.4c-0.4-0.1-0.9-0.2-1.3-0.3c-0.4-0.1-0.8-0.3-1.2-0.5c-0.4-0.2-0.6-0.5-0.9-0.8
		c-0.2-0.3-0.3-0.7-0.3-1.3c0-0.5,0.1-0.9,0.4-1.3s0.6-0.7,1.2-1c0.5-0.2,1.2-0.4,2-0.4c0.5,0,1.1,0.1,1.6,0.2
		c0.5,0.2,1,0.4,1.4,0.6l-0.3,0.8c-0.4-0.3-0.9-0.5-1.3-0.6c-0.5-0.1-0.9-0.2-1.4-0.2c-0.6,0-1.1,0.1-1.4,0.2
		c-0.4,0.2-0.7,0.4-0.8,0.6c-0.2,0.3-0.3,0.6-0.3,0.9c0,0.4,0.1,0.7,0.3,0.9s0.5,0.4,0.9,0.5s0.7,0.2,1.2,0.3
		c0.4,0.1,0.8,0.2,1.3,0.3c0.4,0.1,0.8,0.3,1.2,0.5c0.4,0.2,0.6,0.4,0.9,0.8c0.2,0.3,0.3,0.7,0.3,1.2c0,0.5-0.1,0.9-0.4,1.3
		c-0.3,0.4-0.7,0.7-1.2,1C110.2,147.5,109.6,147.6,108.7,147.6z"/>
	<path class="st2" d="M121.3,147.5c-0.1,0.1-0.4,0.1-0.7,0.1c-1.1,0-1.6-0.7-1.6-2.1v-3.8h-0.7c-0.7,0-1.1,0.1-1.4,0.1l-0.2-0.7
		c0.2-0.2,0.7-0.4,1.8-0.4h3.9l-0.2,1h-2.1v3.8c0,0.9,0.4,1.1,0.8,1.1c0.1,0,0.2,0,0.3,0L121.3,147.5z"/>
	<path class="st2" d="M129.4,140.8c-0.1,0.7-0.2,3-0.2,4.8c0,0.8,0.2,1.1,0.7,1.1l-0.1,0.9c-0.1,0-0.3,0.1-0.4,0.1
		c-0.6,0-1.1-0.4-1.2-1.4h0c-0.4,0.8-1.2,1.4-2.3,1.4c-1.6,0-2.8-1.3-2.8-3.4c0-2.2,1.4-3.7,3-3.7c1,0,1.7,0.5,2.1,1.3h0.1
		c0-0.5,0.1-0.9,0.1-1.2H129.4z M126.2,146.7c0.8,0,1.6-0.8,1.8-1.7c0.1-0.3,0.1-0.6,0.1-0.9c0-0.3,0-0.5-0.1-0.7
		c-0.2-0.9-0.8-1.7-1.7-1.7c-1.1,0-1.9,1.1-1.9,2.7C124.4,145.5,125.1,146.7,126.2,146.7z"/>
	<path class="st2" d="M139.8,141.7v3.8c0,1.1,0.1,1.7,0.2,2h-1.2c-0.1-0.2-0.2-0.8-0.2-1.9v-3.9h-2.2c-0.1,1.8-0.5,4.7-0.9,5.8h-1.2
		c0.5-1.3,0.9-4,0.9-5.8c-0.5,0-1,0-1.4,0.1l-0.2-0.7c0.3-0.2,0.9-0.4,1.9-0.4h5.3l-0.1,1H139.8z"/>
	<path class="st2" d="M148.1,140.8c-0.1,0.7-0.2,3-0.2,4.8c0,0.8,0.2,1.1,0.7,1.1l-0.1,0.9c-0.1,0-0.3,0.1-0.4,0.1
		c-0.6,0-1.1-0.4-1.2-1.4h0c-0.4,0.8-1.2,1.4-2.3,1.4c-1.6,0-2.8-1.3-2.8-3.4c0-2.2,1.4-3.7,3-3.7c1,0,1.7,0.5,2.1,1.3h0.1
		c0-0.5,0.1-0.9,0.1-1.2H148.1z M144.9,146.7c0.8,0,1.6-0.8,1.8-1.7c0.1-0.3,0.1-0.6,0.1-0.9c0-0.3,0-0.5-0.1-0.7
		c-0.2-0.9-0.8-1.7-1.7-1.7c-1.1,0-1.9,1.1-1.9,2.7C143.1,145.5,143.7,146.7,144.9,146.7z M146.5,138l-1.2,2h-0.8l0.7-2H146.5z"/>
	<path class="st2" d="M150.4,140.8l1.3,3.8c0.2,0.6,0.4,1.2,0.6,1.8h0c0.6-1.1,1.7-3.4,1.7-4.9c0-0.2,0-0.4,0-0.6h1.2
		c0,0.1,0,0.3,0,0.5c0,1.9-1.3,4.2-2.5,6.2h-1.2l-2.5-6.7H150.4z"/>
	<path class="st2" d="M160.4,147.5c-0.1,0.1-0.4,0.1-0.7,0.1c-1.1,0-1.6-0.7-1.6-2.1v-3.8h-0.7c-0.7,0-1.1,0.1-1.4,0.1l-0.2-0.7
		c0.2-0.2,0.7-0.4,1.8-0.4h3.9l-0.2,1h-2.1v3.8c0,0.9,0.4,1.1,0.8,1.1c0.1,0,0.2,0,0.3,0L160.4,147.5z"/>
	<path class="st2" d="M168.5,140.8c-0.1,0.7-0.2,3-0.2,4.8c0,0.8,0.2,1.1,0.7,1.1l-0.1,0.9c-0.1,0-0.3,0.1-0.4,0.1
		c-0.6,0-1.1-0.4-1.2-1.4h0c-0.4,0.8-1.2,1.4-2.3,1.4c-1.6,0-2.8-1.3-2.8-3.4c0-2.2,1.4-3.7,3-3.7c1,0,1.7,0.5,2.1,1.3h0.1
		c0-0.5,0.1-0.9,0.1-1.2H168.5z M165.3,146.7c0.8,0,1.6-0.8,1.8-1.7c0.1-0.3,0.1-0.6,0.1-0.9c0-0.3,0-0.5-0.1-0.7
		c-0.2-0.9-0.8-1.7-1.7-1.7c-1.1,0-1.9,1.1-1.9,2.7C163.5,145.5,164.1,146.7,165.3,146.7z"/>
	<path class="st2" d="M175.1,150.2c0-1.3,0.1-2.6-0.3-3.9c-0.5-2.2-1.7-4.5-2.4-5.5h1.4c0.6,0.9,1.6,3.2,2,5.2h0.1
		c0.6-1.1,1.6-3.1,1.6-4.8c0-0.2,0-0.3,0-0.5h1.2c0,0.1,0,0.3,0,0.5c0,1.7-1.1,3.9-2.4,5.9c-0.1,0.1-0.1,0.2-0.1,0.3
		c0,0.8,0,1.8,0,2.8H175.1z"/>
	<path class="st2" d="M181.4,145.9c0,0.6,0.1,0.8,0.7,0.8l-0.1,0.9c-0.1,0-0.3,0.1-0.6,0.1c-0.7,0-1.3-0.3-1.3-1.7v-5.2h1.2V145.9z"
		/>
	<path class="st2" d="M189.4,140.8c-0.1,0.7-0.2,3-0.2,4.8c0,0.8,0.2,1.1,0.7,1.1l-0.1,0.9c-0.1,0-0.3,0.1-0.4,0.1
		c-0.6,0-1.1-0.4-1.2-1.4h0c-0.4,0.8-1.2,1.4-2.3,1.4c-1.6,0-2.8-1.3-2.8-3.4c0-2.2,1.4-3.7,3-3.7c1,0,1.7,0.5,2.1,1.3h0.1
		c0-0.5,0.1-0.9,0.1-1.2H189.4z M186.2,146.7c0.8,0,1.6-0.8,1.8-1.7c0.1-0.3,0.1-0.6,0.1-0.9c0-0.3,0-0.5-0.1-0.7
		c-0.2-0.9-0.8-1.7-1.7-1.7c-1.1,0-1.9,1.1-1.9,2.7C184.4,145.5,185,146.7,186.2,146.7z"/>
	<path class="st2" d="M197.9,147.5c-0.1,0.1-0.4,0.1-0.7,0.1c-1.1,0-1.6-0.7-1.6-2.1v-3.8h-0.7c-0.7,0-1.1,0.1-1.4,0.1l-0.2-0.7
		c0.2-0.2,0.7-0.4,1.8-0.4h3.9l-0.2,1h-2.1v3.8c0,0.9,0.4,1.1,0.8,1.1c0.1,0,0.2,0,0.3,0L197.9,147.5z"/>
	<path class="st2" d="M200.4,147.5v-4.9c0-0.7,0-1.4-0.2-1.8h1.1c0.1,0.3,0.2,0.7,0.2,1.1h0c0.3-0.6,1.1-1.3,2.2-1.3
		c0.9,0,2.4,0.6,2.4,2.9v4.3c0,0.8,0,1.9,0.1,2.5h-1.2c-0.2-0.4-0.2-1.6-0.2-2.5v-4.2c0-1.1-0.4-2-1.6-2c-0.8,0-1.4,0.6-1.6,1.3
		c-0.1,0.2-0.1,0.4-0.1,0.6v4H200.4z"/>
	<path class="st2" d="M215.9,146.5c-0.3,0.5-0.9,1.2-1.9,1.2c-0.6,0-1.2-0.2-1.5-0.7v0.8c0,0.7,0,2,0.2,2.5h-1.1
		c-0.1-0.4-0.2-1.4-0.2-2.5v-7h1.2v4c0,1,0.4,1.9,1.5,1.9c0.8,0,1.4-0.6,1.6-1.1c0.1-0.2,0.1-0.4,0.1-0.6v-4.1h1.2v4.9
		c0,0.7,0.2,1,0.6,1.1l-0.1,0.9c-0.1,0-0.2,0.1-0.4,0.1C216.5,147.7,216,147.3,215.9,146.5L215.9,146.5z"/>
	<path class="st2" d="M224.4,141.7v3.8c0,1.1,0.1,1.7,0.2,2h-1.2c-0.1-0.2-0.2-0.8-0.2-1.9v-3.9H221c-0.1,1.8-0.5,4.7-0.9,5.8h-1.2
		c0.5-1.3,0.9-4,0.9-5.8c-0.5,0-1,0-1.4,0.1l-0.2-0.7c0.3-0.2,0.9-0.4,1.9-0.4h5.3l-0.1,1H224.4z"/>
	<path class="st2" d="M232.7,140.8c-0.1,0.7-0.2,3-0.2,4.8c0,0.8,0.2,1.1,0.7,1.1l-0.1,0.9c-0.1,0-0.3,0.1-0.4,0.1
		c-0.6,0-1.1-0.4-1.2-1.4h0c-0.4,0.8-1.2,1.4-2.3,1.4c-1.6,0-2.8-1.3-2.8-3.4c0-2.2,1.4-3.7,3-3.7c1,0,1.7,0.5,2.1,1.3h0.1
		c0-0.5,0.1-0.9,0.1-1.2H232.7z M229.5,146.7c0.8,0,1.6-0.8,1.8-1.7c0.1-0.3,0.1-0.6,0.1-0.9c0-0.3,0-0.5-0.1-0.7
		c-0.2-0.9-0.8-1.7-1.7-1.7c-1.1,0-1.9,1.1-1.9,2.7C227.7,145.5,228.3,146.7,229.5,146.7z"/>
	<path class="st2" d="M238.1,147.5c-0.1,0.1-0.4,0.1-0.7,0.1c-1.1,0-1.6-0.7-1.6-2.1v-3.8h-0.7c-0.7,0-1.1,0.1-1.4,0.1l-0.2-0.7
		c0.2-0.2,0.7-0.4,1.8-0.4h3.9l-0.2,1h-2.1v3.8c0,0.9,0.4,1.1,0.8,1.1c0.1,0,0.2,0,0.3,0L238.1,147.5z"/>
	<path class="st2" d="M246.2,140.8c-0.1,0.7-0.2,3-0.2,4.8c0,0.8,0.2,1.1,0.7,1.1l-0.1,0.9c-0.1,0-0.3,0.1-0.4,0.1
		c-0.6,0-1.1-0.4-1.2-1.4h0c-0.4,0.8-1.2,1.4-2.3,1.4c-1.6,0-2.8-1.3-2.8-3.4c0-2.2,1.4-3.7,3-3.7c1,0,1.7,0.5,2.1,1.3h0.1
		c0-0.5,0.1-0.9,0.1-1.2H246.2z M243,146.7c0.8,0,1.6-0.8,1.8-1.7c0.1-0.3,0.1-0.6,0.1-0.9c0-0.3,0-0.5-0.1-0.7
		c-0.2-0.9-0.8-1.7-1.7-1.7c-1.1,0-1.9,1.1-1.9,2.7C241.2,145.5,241.8,146.7,243,146.7z"/>
	<path class="st2" d="M248.2,150.2c-0.1-0.4-0.2-1.4-0.2-2.4v-3.1c0-1.7,0.4-2.5,1-3.1c0.5-0.6,1.3-1,2.3-1c1.9,0,3.1,1.4,3.1,3.4
		c0,2.4-1.5,3.6-3.1,3.6c-0.9,0-1.6-0.4-2-1h0v1.1c0,0.8,0,1.9,0.1,2.5H248.2z M249.3,144.9c0,0.2,0,0.3,0.1,0.5
		c0.2,0.8,1,1.3,1.8,1.3c1.3,0,2-1.1,2-2.6c0-1.3-0.7-2.4-1.9-2.4c-1,0-2,0.8-2,2.7V144.9z"/>
	<path class="st2" d="M257.3,145.9c0,0.6,0.1,0.8,0.7,0.8l-0.1,0.9c-0.1,0-0.3,0.1-0.6,0.1c-0.7,0-1.3-0.3-1.3-1.7v-5.2h1.2V145.9z
		 M258.2,137.9l-1.2,2h-0.8l0.7-2H258.2z"/>
	<path class="st2" d="M265.3,140.8c-0.1,0.7-0.2,3-0.2,4.8c0,0.8,0.2,1.1,0.7,1.1l-0.1,0.9c-0.1,0-0.3,0.1-0.4,0.1
		c-0.6,0-1.1-0.4-1.2-1.4h0c-0.4,0.8-1.2,1.4-2.3,1.4c-1.6,0-2.8-1.3-2.8-3.4c0-2.2,1.4-3.7,3-3.7c1,0,1.7,0.5,2.1,1.3h0.1
		c0-0.5,0.1-0.9,0.1-1.2H265.3z M262.1,146.7c0.8,0,1.6-0.8,1.8-1.7c0.1-0.3,0.1-0.6,0.1-0.9c0-0.3,0-0.5-0.1-0.7
		c-0.2-0.9-0.8-1.7-1.7-1.7c-1.1,0-1.9,1.1-1.9,2.7C260.3,145.5,260.9,146.7,262.1,146.7z"/>
</g>
<g>
</g>
<g>
</g>
<g>
</g>
<g>
</g>
<g>
</g>
<g>
</g>
</svg>
